<?xml version="1.0" encoding="utf-8"?>
<!-- Generator: Adobe Illustrator 27.5.0, SVG Export Plug-In . SVG Version: 6.00 Build 0)  -->
<svg version="1.1" id="Layer_1" xmlns="http://www.w3.org/2000/svg" xmlns:xlink="http://www.w3.org/1999/xlink" x="0px" y="0px"
	 viewBox="0 0 645 705" style="enable-background:new 0 0 645 705;" xml:space="preserve">
<style type="text/css">
	.st0{clip-path:url(#SVGID_00000046339546445175360550000011439089379656681621_);}
	.st1{fill:#00D29B;}
	.st2{fill:#FFFFFF;}
	.st3{clip-path:url(#SVGID_00000095331551388542279090000003834760099551712407_);}
	.st4{fill-rule:evenodd;clip-rule:evenodd;fill:#87FF87;}
	.st5{fill-rule:evenodd;clip-rule:evenodd;fill:#0FCDFA;}
	.st6{fill:#9933FF;}
	.st7{fill:#4D1A80;}
	.st8{fill:#260D40;}
	.st9{fill:#3271FC;}
	.st10{fill:#0FCDFA;}
	.st11{fill:#87FF87;}
	.st12{fill:#1E0F41;}
</style>
<g>
	<path class="st4" d="M506,120.9c0,37.9-30.7,68.6-68.6,68.6c-37.9,0-68.6-30.7-68.6-68.6s30.7-68.6,68.6-68.6
		C475.3,52.3,506,83,506,120.9L506,120.9z M437.4,275.5c-37.9,0-68.6,30.7-68.6,68.6v240.2c0.1,37.8,30.8,68.4,68.6,68.4l0,0
		c37.9,0,68.6-30.7,68.6-68.6v-240c-0.1-37.8-30.8-68.4-68.6-68.4V275.5L437.4,275.5L437.4,275.5z"/>
	<path class="st5" d="M276.2,583.6c0,37.9-30.7,68.6-68.6,68.6S139,621.5,139,583.6s30.7-68.6,68.6-68.6S276.2,545.7,276.2,583.6
		L276.2,583.6z M207.6,427.9c37.9,0,68.6-30.6,68.6-68.3V120.4c-0.1-37.6-30.8-68.1-68.6-68.1l0,0c-37.9,0-68.6,30.6-68.6,68.3v239
		c0.1,37.6,30.8,68.1,68.6,68.1V427.9L207.6,427.9L207.6,427.9z"/>
</g>
</svg>
