<svg width="602" height="367" viewBox="0 0 602 367" fill="none" xmlns="http://www.w3.org/2000/svg">
<path fill-rule="evenodd" clip-rule="evenodd" d="M532.601 0C570.501 0 601.201 30.7 601.201 68.6C601.201 106.5 570.501 137.2 532.601 137.2C494.701 137.2 464.001 106.5 464.001 68.6C464.001 30.7 494.701 0 532.601 0ZM378.001 68.6H377.801C377.801 30.8 347.201 0.1 309.401 0H69.4008C31.5008 0 0.800781 30.7 0.800781 68.6C0.800781 106.4 31.4008 137.1 69.2008 137.2H309.401C347.201 137.2 378.001 106.5 378.001 68.6Z" fill="#87FF87"/>
<path fill-rule="evenodd" clip-rule="evenodd" d="M69.9008 229.8C107.801 229.8 138.501 260.5 138.501 298.4C138.501 336.3 107.801 367 69.9008 367C32.0008 367 1.30078 336.3 1.30078 298.4C1.30078 260.5 32.0008 229.8 69.9008 229.8ZM225.601 298.4H225.801C225.801 336.2 256.301 366.9 293.901 367H532.901C570.601 367 601.201 336.3 601.201 298.4C601.201 260.6 570.701 229.9 533.101 229.8H293.901C256.201 229.8 225.601 260.5 225.601 298.4Z" fill="#00BCE9"/>
</svg>
